<svg xmlns="http://www.w3.org/2000/svg" viewBox="0 0 356.37 356.37"><defs><style>.cls-1{fill:#fff;}.cls-2{fill:#d69f56;}.cls-3{fill:#fec260;}.cls-4{fill:#1e1000;}</style></defs><g id="Layer_2" data-name="Layer 2"><g id="Layer_1-2" data-name="Layer 1"><circle class="cls-1" cx="178.18" cy="178.18" r="119.84"/><path class="cls-2" d="M164.51,172.56a1,1,0,0,1-.64-.23,18.6,18.6,0,0,1-2.79-2.89,6.73,6.73,0,0,1-1.22-3.34,3.1,3.1,0,0,1,3.33-3.22c2.31,0,6.81,3,6.81,8.37a1,1,0,1,1-1.93,0c0-4.18-3.47-6.43-4.88-6.43a1.2,1.2,0,0,0-1.39,1.28,5.12,5.12,0,0,0,.94,2.34,16.79,16.79,0,0,0,2.4,2.42,1,1,0,0,1,.1,1.37A1,1,0,0,1,164.51,172.56Z"/><path class="cls-2" d="M166.45,234.82a1,1,0,0,1-1-1V171.42a1,1,0,0,1,1.94,0v62.43A1,1,0,0,1,166.45,234.82Z"/><path class="cls-2" d="M166.45,181h-7.62a1,1,0,0,1,0-1.94h7.62a1,1,0,0,1,0,1.94Z"/><path class="cls-2" d="M166.45,193.66h-7.62a1,1,0,0,1,0-1.94h7.62a1,1,0,0,1,0,1.94Z"/><path class="cls-2" d="M166.45,209.31h-7.62a1,1,0,0,1,0-1.94h7.62a1,1,0,1,1,0,1.94Z"/><path class="cls-2" d="M166.45,217.89h-7.62a1,1,0,1,1,0-1.93h7.62a1,1,0,1,1,0,1.93Z"/><path class="cls-2" d="M166.45,225.27h-7.62a1,1,0,0,1,0-1.94h7.62a1,1,0,0,1,0,1.94Z"/><path class="cls-2" d="M172.55,198.74a2.51,2.51,0,0,1,0-5,1,1,0,0,1,0,1.94.57.57,0,1,0,0,1.14,1,1,0,1,1,0,1.94Z"/><path class="cls-2" d="M173.47,234.82h-3.69a1,1,0,0,1-1-1v-18.3a2.82,2.82,0,0,1,5.63,0v18.3A1,1,0,0,1,173.47,234.82Zm-2.72-1.93h1.75V215.55a.88.88,0,1,0-1.75,0Z"/><path class="cls-2" d="M171.63,212.09a1.69,1.69,0,1,1,1.68-1.68A1.69,1.69,0,0,1,171.63,212.09Zm0-1.94a.26.26,0,0,0-.26.26.26.26,0,0,0,.26.25.25.25,0,0,0,.25-.25A.26.26,0,0,0,171.63,210.15Z"/><path class="cls-2" d="M178.65,209.58a1.77,1.77,0,1,1,1.77-1.77A1.77,1.77,0,0,1,178.65,209.58Zm0-1.94a.18.18,0,0,0-.17.17.17.17,0,0,0,.34,0A.18.18,0,0,0,178.65,207.64Z"/><path class="cls-2" d="M158.83,285.2a1,1,0,0,1-1-1V233.85a1,1,0,0,1,1.94,0v50.38A1,1,0,0,1,158.83,285.2Z"/><path class="cls-2" d="M162.52,285.2a1,1,0,0,1-1-1V257.29a1,1,0,0,1,1.94,0v26.94A1,1,0,0,1,162.52,285.2Z"/><path class="cls-2" d="M165.8,285.2a1,1,0,0,1-1-1v-31a1,1,0,0,1,1.94,0v31A1,1,0,0,1,165.8,285.2Z"/><path class="cls-2" d="M165.8,278.55h-7a1,1,0,0,1,0-1.94h7a1,1,0,0,1,0,1.94Z"/><path class="cls-2" d="M174,285.2a1,1,0,0,1-1-1V263.39a1,1,0,1,1,1.94,0v20.84A1,1,0,0,1,174,285.2Z"/><path class="cls-2" d="M198.48,173.44a.86.86,0,0,1-.28,0s-5-1.41-19.54-1.41-19.51,1.4-19.56,1.41a1,1,0,0,1-.61,0c-.21-.08-5.2-1.95-5.2-6.93,0-8.9,4.35-16.81,12.59-22.88a47.11,47.11,0,0,1,11.8-6.28v-9.13a1,1,0,0,1,1-1h0a1,1,0,0,1,1,1v9.13a47.29,47.29,0,0,1,11.8,6.28c8.23,6.07,12.59,14,12.59,22.88,0,5-5,6.85-5.21,6.93A1,1,0,0,1,198.48,173.44Zm-19.84-3.39c13,0,18.41,1.07,19.77,1.4.88-.4,3.67-1.9,3.67-5,0-18.85-20.77-26.54-23.43-27.44-2.65.9-23.42,8.61-23.42,27.44,0,3.1,2.78,4.6,3.67,5C160.25,171.12,165.7,170.05,178.64,170.05Z"/><path class="cls-2" d="M203.05,167.42a1,1,0,0,1-1-1c0-3.23-2.32-5.37-3.86-5.37H188.14a1,1,0,0,1-.72-.32s-4-4.41-8.76-4.41-8.74,4.36-8.78,4.41a1,1,0,0,1-.72.32H159.09c-1.54,0-3.86,2.14-3.86,5.37a1,1,0,0,1-1.94,0c0-4.18,3.06-7.31,5.8-7.31h9.65c1.11-1.12,5-4.72,9.9-4.72s8.81,3.6,9.92,4.72h9.66c2.74,0,5.8,3.13,5.8,7.31A1,1,0,0,1,203.05,167.42Z"/><path class="cls-2" d="M192.8,172.56a1,1,0,0,1-.74-.33,1,1,0,0,1,.11-1.37,17.91,17.91,0,0,0,2.4-2.42,5.1,5.1,0,0,0,.93-2.34,1.19,1.19,0,0,0-1.38-1.28c-1.42,0-4.88,2.25-4.88,6.43a1,1,0,1,1-1.94,0c0-5.41,4.5-8.37,6.82-8.37a3.1,3.1,0,0,1,3.32,3.22,6.82,6.82,0,0,1-1.21,3.34,18.15,18.15,0,0,1-2.8,2.89A.94.94,0,0,1,192.8,172.56Z"/><path class="cls-2" d="M181.29,172a1,1,0,0,1-1-1v-3.8a4.16,4.16,0,0,1,.9-2.34,2.26,2.26,0,0,0,.5-1,3.07,3.07,0,0,0-6.14,0,2.3,2.3,0,0,0,.51,1,4.16,4.16,0,0,1,.89,2.34V171a1,1,0,0,1-1.94,0v-3.8a2.46,2.46,0,0,0-.57-1.26,3.87,3.87,0,0,1-.83-2.12,5,5,0,0,1,10,0,3.8,3.8,0,0,1-.83,2.12,2.46,2.46,0,0,0-.57,1.26V171A1,1,0,0,1,181.29,172Z"/><path class="cls-2" d="M198.48,234.82H158.83a1,1,0,0,1-1-1V172.47a1,1,0,0,1,1.94,0v60.42h37.71V172.47a1,1,0,0,1,1.94,0v61.38A1,1,0,0,1,198.48,234.82Z"/><path class="cls-2" d="M190.85,234.82a1,1,0,0,1-1-1V171.42a1,1,0,0,1,1.94,0v62.43A1,1,0,0,1,190.85,234.82Z"/><path class="cls-2" d="M198.48,181h-7.63a1,1,0,0,1,0-1.94h7.63a1,1,0,0,1,0,1.94Z"/><path class="cls-2" d="M198.48,193.66h-7.63a1,1,0,0,1,0-1.94h7.63a1,1,0,0,1,0,1.94Z"/><path class="cls-2" d="M198.48,202.11H158.83a1,1,0,0,1,0-1.94h39.65a1,1,0,0,1,0,1.94Z"/><path class="cls-2" d="M198.48,209.31h-7.63a1,1,0,0,1,0-1.94h7.63a1,1,0,0,1,0,1.94Z"/><path class="cls-2" d="M198.48,217.89h-7.63a1,1,0,1,1,0-1.93h7.63a1,1,0,1,1,0,1.93Z"/><path class="cls-2" d="M198.48,225.27h-7.63a1,1,0,0,1,0-1.94h7.63a1,1,0,0,1,0,1.94Z"/><path class="cls-2" d="M190.85,183.83a1,1,0,0,1-.9-.63c-1.82-4.78-7.15-5.78-11.3-5.78s-9.47,1-11.29,5.78a1,1,0,0,1-1.26.56,1,1,0,0,1-.56-1.25c1.76-4.6,6.29-7,13.11-7s11.36,2.43,13.11,7a1,1,0,0,1-.56,1.25A.84.84,0,0,1,190.85,183.83Z"/><path class="cls-2" d="M190.85,190.16a1,1,0,0,1-.93-.69c-2.43-8.26-11.15-8.16-11.25-8.16-.39,0-8.87-.07-11.29,8.16a1,1,0,0,1-1.86-.55c2.85-9.67,13.06-9.55,13.15-9.55s10.26-.13,13.11,9.55a1,1,0,0,1-.65,1.2A.9.9,0,0,1,190.85,190.16Z"/><path class="cls-2" d="M190.85,198.06a1,1,0,0,1-1-1,4.57,4.57,0,0,0-1.31-3.46c-1.87-1.86-5.15-1.88-5.25-1.88h0a.94.94,0,0,1-.69-.29,1,1,0,0,1-.29-.68v-1.59a4.05,4.05,0,0,0-1.55-3c-1.3-1.3-1.93-1.44-2.14-1.44s-.83.14-2.14,1.44a4.05,4.05,0,0,0-1.55,3v1.59a1,1,0,0,1-.29.69,1.06,1.06,0,0,1-.69.28s-3.36,0-5.25,1.88a4.61,4.61,0,0,0-1.31,3.46,1,1,0,0,1-1.94,0,6.56,6.56,0,0,1,1.89-4.85,9.65,9.65,0,0,1,5.65-2.38v-.67a6,6,0,0,1,2.12-4.39c1.37-1.37,2.49-2,3.51-2s2.14.64,3.51,2a6,6,0,0,1,2.12,4.39v.67a9.63,9.63,0,0,1,5.65,2.38,6.52,6.52,0,0,1,1.89,4.85A1,1,0,0,1,190.85,198.06Z"/><path class="cls-2" d="M184.75,198.74a1,1,0,1,1,0-1.94.57.57,0,0,0,0-1.14,1,1,0,0,1,0-1.94,2.51,2.51,0,0,1,0,5Z"/><path class="cls-2" d="M180.33,198.74H177a1,1,0,0,1-1-1v-3.85a2.67,2.67,0,0,1,2.64-2.74h0a2.67,2.67,0,0,1,2.65,2.74v3.85A1,1,0,0,1,180.33,198.74ZM178,196.8h1.41v-2.88a.74.74,0,0,0-.71-.8h0a.73.73,0,0,0-.7.8Z"/><path class="cls-2" d="M190.85,204.6h-24.4a1,1,0,0,1,0-1.94h24.4a1,1,0,0,1,0,1.94Z"/><path class="cls-2" d="M187.52,234.82h-3.69a1,1,0,0,1-1-1v-18.3a2.82,2.82,0,0,1,5.63,0v18.3A1,1,0,0,1,187.52,234.82Zm-2.72-1.93h1.75V215.55a.88.88,0,1,0-1.75,0Z"/><path class="cls-2" d="M181.08,234.82h-4.86a1,1,0,0,1-1-1V213.22a3.39,3.39,0,0,1,3.39-3.39h0a3.39,3.39,0,0,1,3.39,3.39v20.63A1,1,0,0,1,181.08,234.82Zm-3.89-1.93h2.92V213.22a1.45,1.45,0,0,0-1.45-1.45h0a1.45,1.45,0,0,0-1.45,1.45Z"/><path class="cls-2" d="M185.68,212.09a1.69,1.69,0,1,1,1.68-1.68A1.69,1.69,0,0,1,185.68,212.09Zm0-1.94a.26.26,0,0,0-.26.26.26.26,0,0,0,.26.25.25.25,0,0,0,.25-.25A.26.26,0,0,0,185.68,210.15Z"/><path class="cls-2" d="M198.48,285.2a1,1,0,0,1-1-1V233.85a1,1,0,0,1,1.94,0v50.38A1,1,0,0,1,198.48,285.2Z"/><path class="cls-2" d="M198.48,241.71H158.83a1,1,0,1,1,0-1.93h39.65a1,1,0,1,1,0,1.93Z"/><path class="cls-2" d="M198.48,251.27H158.83a1,1,0,0,1,0-1.94h39.65a1,1,0,0,1,0,1.94Z"/><path class="cls-2" d="M198.48,254.18H158.83a1,1,0,0,1,0-1.94h39.65a1,1,0,0,1,0,1.94Z"/><path class="cls-2" d="M194.78,285.2a1,1,0,0,1-1-1V257.29a1,1,0,0,1,1.94,0v26.94A1,1,0,0,1,194.78,285.2Z"/><path class="cls-2" d="M191.51,285.2a1,1,0,0,1-1-1v-31a1,1,0,0,1,1.94,0v31A1,1,0,0,1,191.51,285.2Z"/><path class="cls-2" d="M198.48,278.55h-7a1,1,0,0,1,0-1.94h7a1,1,0,0,1,0,1.94Z"/><path class="cls-2" d="M191.51,258.89H165.8a1,1,0,1,1,0-1.94h25.71a1,1,0,1,1,0,1.94Z"/><path class="cls-2" d="M187.88,285.2a1,1,0,0,1-1-1V264.36H170.39v19.87a1,1,0,0,1-1.94,0V263.39a1,1,0,0,1,1-1h18.46a1,1,0,0,1,1,1v20.84A1,1,0,0,1,187.88,285.2Z"/><path class="cls-2" d="M183.27,285.2a1,1,0,0,1-1-1V263.39a1,1,0,1,1,1.94,0v20.84A1,1,0,0,1,183.27,285.2Z"/><path class="cls-2" d="M162.57,246.2a1,1,0,0,1-1-1v-4.49a1,1,0,0,1,1.94,0v4.49A1,1,0,0,1,162.57,246.2Z"/><path class="cls-2" d="M166.14,245.68a1,1,0,0,1-1-1v-4a1,1,0,0,1,1.94,0v4A1,1,0,0,1,166.14,245.68Z"/><path class="cls-2" d="M169.71,247.08a1,1,0,0,1-1-1v-5.37a1,1,0,0,1,1.93,0v5.37A1,1,0,0,1,169.71,247.08Z"/><path class="cls-2" d="M173.29,246.2a1,1,0,0,1-1-1v-4.49a1,1,0,0,1,1.94,0v4.49A1,1,0,0,1,173.29,246.2Z"/><path class="cls-2" d="M176.86,247.08a1,1,0,0,1-1-1v-5.37a1,1,0,0,1,1.94,0v5.37A1,1,0,0,1,176.86,247.08Z"/><path class="cls-2" d="M180.43,247.08a1,1,0,0,1-1-1v-5.37a1,1,0,0,1,1.94,0v5.37A1,1,0,0,1,180.43,247.08Z"/><path class="cls-2" d="M184,246.2a1,1,0,0,1-1-1v-4.49a1,1,0,0,1,1.94,0v4.49A1,1,0,0,1,184,246.2Z"/><path class="cls-2" d="M187.57,247.08a1,1,0,0,1-1-1v-5.37a1,1,0,0,1,1.93,0v5.37A1,1,0,0,1,187.57,247.08Z"/><path class="cls-2" d="M191.15,245.68a1,1,0,0,1-1-1v-4a1,1,0,0,1,1.94,0v4A1,1,0,0,1,191.15,245.68Z"/><path class="cls-2" d="M194.72,246.2a1,1,0,0,1-1-1v-4.49a1,1,0,0,1,1.94,0v4.49A1,1,0,0,1,194.72,246.2Z"/><path class="cls-2" d="M126,195.93a1,1,0,0,1-1-1v-11.2a13,13,0,0,1,25.9,0v10.93a1,1,0,1,1-1.94,0V183.76a11,11,0,0,0-22,0V195A1,1,0,0,1,126,195.93Z"/><path class="cls-2" d="M158.83,195.93H150a1,1,0,0,1-1-1,11,11,0,0,0-22,0,1,1,0,0,1-1,1h-8.86a1,1,0,0,1-1-1v-9.19a1,1,0,0,1,1.94,0V194h7a13,13,0,0,1,25.83,0h7.93a1,1,0,0,1,0,1.94Z"/><path class="cls-2" d="M138,172.75a1,1,0,0,1-1-1V166.9a1,1,0,0,1,1.94,0v4.88A1,1,0,0,1,138,172.75Z"/><path class="cls-2" d="M158.83,184.73H150a1,1,0,0,1,0-1.94h8.87a1,1,0,0,1,0,1.94Z"/><path class="cls-2" d="M158.83,186.74H150a1,1,0,0,1,0-1.94h8.87a1,1,0,0,1,0,1.94Z"/><path class="cls-2" d="M158.1,184.73a1,1,0,0,1-1-1,2.74,2.74,0,1,0-5.47,0,1,1,0,0,1-1.94,0,4.68,4.68,0,1,1,9.35,0A1,1,0,0,1,158.1,184.73Z"/><path class="cls-2" d="M154.39,181a1,1,0,0,1-1-1v-3.18a1,1,0,1,1,1.94,0v3.18A1,1,0,0,1,154.39,181Z"/><path class="cls-2" d="M126,186.74h-8.86a2.08,2.08,0,0,1-2.23-2,2.06,2.06,0,0,1,2.23-2H126a1,1,0,0,1,0,1.94h-8.86a.68.68,0,0,0-.19,0l.22,0H126a1,1,0,1,1,0,1.94Z"/><path class="cls-2" d="M125.28,184.73a1,1,0,0,1-1-1,2.74,2.74,0,1,0-5.47,0,1,1,0,0,1-1.94,0,4.68,4.68,0,1,1,9.35,0A1,1,0,0,1,125.28,184.73Z"/><path class="cls-2" d="M121.57,181a1,1,0,0,1-1-1v-3.18a1,1,0,0,1,1.94,0v3.18A1,1,0,0,1,121.57,181Z"/><path class="cls-2" d="M158.83,198.54H147a1,1,0,0,1-1-1,8.1,8.1,0,1,0-16.17,0,1,1,0,0,1-1,1H115.88a1,1,0,0,1-1-1V195a1,1,0,0,1,1-1h1.26a1,1,0,1,1,0,1.94h-.29v.67H128a10,10,0,0,1,20,0h10.87a1,1,0,0,1,0,1.94Z"/><path class="cls-2" d="M147.82,209.86a1,1,0,0,1-1-1v-1.57a.92.92,0,0,0-.92-.92H130a.92.92,0,0,0-.92.92v1.57a1,1,0,1,1-1.94,0v-1.57a2.86,2.86,0,0,1,2.86-2.86h15.89a2.87,2.87,0,0,1,2.86,2.86v1.57A1,1,0,0,1,147.82,209.86Z"/><path class="cls-2" d="M143.45,206.4a1,1,0,0,1-1-1,4.5,4.5,0,0,0-9,0,1,1,0,0,1-1.94,0,6.44,6.44,0,0,1,12.88,0A1,1,0,0,1,143.45,206.4Z"/><path class="cls-2" d="M154.42,222.78H121.55a1,1,0,0,1,0-1.94h32.87a1,1,0,0,1,0,1.94Z"/><path class="cls-2" d="M128.15,222.78a1,1,0,0,1-1-1v-7.64a1,1,0,0,1,1.94,0v7.64A1,1,0,0,1,128.15,222.78Z"/><path class="cls-2" d="M134.71,222.78a1,1,0,0,1-1-1v-7.64a1,1,0,0,1,1.94,0v7.64A1,1,0,0,1,134.71,222.78Z"/><path class="cls-2" d="M141.26,222.78a1,1,0,0,1-1-1v-7.64a1,1,0,0,1,1.94,0v7.64A1,1,0,0,1,141.26,222.78Z"/><path class="cls-2" d="M147.82,222.78a1,1,0,0,1-1-1v-7.64a1,1,0,0,1,1.94,0v7.64A1,1,0,0,1,147.82,222.78Z"/><path class="cls-2" d="M150.63,218.31H125.34a1,1,0,0,1,0-1.94h25.29a1,1,0,1,1,0,1.94Z"/><path class="cls-2" d="M117.14,285.2a1,1,0,0,1-1-1V197.57a1,1,0,0,1,1.94,0v86.66A1,1,0,0,1,117.14,285.2Z"/><path class="cls-2" d="M155,241h-5.47c-1.5,0-2.28-1.7-2.28-3.38v-1H128.74v1c0,1.68-.79,3.38-2.29,3.38H121c-2.59,0-2.59-3.19-2.59-4.24,0-3.05.73-4.19,2.7-4.19h33.79c2,0,2.7,1.14,2.7,4.19C157.58,237.76,157.58,241,155,241ZM149.57,239h0Zm0,0H155c.57,0,.66-1.44.66-2.3,0-1.93-.32-2.21-.32-2.21a1.57,1.57,0,0,0-.44,0H121.09a1.53,1.53,0,0,0-.44,0s-.32.28-.32,2.21c0,.86.08,2.3.65,2.3h5.44a2.49,2.49,0,0,0,.38-1.44v-2a1,1,0,0,1,1-1H148.2a1,1,0,0,1,1,1v2A2.49,2.49,0,0,0,149.55,239Z"/><path class="cls-2" d="M127.94,234.46h-5.46a1,1,0,0,1-1-1V230a3.7,3.7,0,1,1,7.4,0v3.53A1,1,0,0,1,127.94,234.46Zm-4.49-1.94H127V230a1.76,1.76,0,1,0-3.52,0Z"/><path class="cls-2" d="M136.46,234.46H131a1,1,0,0,1-1-1V230a3.7,3.7,0,1,1,7.4,0v3.53A1,1,0,0,1,136.46,234.46Zm-4.5-1.94h3.53V230a1.77,1.77,0,1,0-3.53,0Z"/><path class="cls-2" d="M145,234.46h-5.46a1,1,0,0,1-1-1V230a3.7,3.7,0,1,1,7.4,0v3.53A1,1,0,0,1,145,234.46Zm-4.49-1.94H144V230a1.76,1.76,0,1,0-3.52,0Z"/><path class="cls-2" d="M153.49,234.46H148a1,1,0,0,1-1-1V230a3.7,3.7,0,1,1,7.4,0v3.53A1,1,0,0,1,153.49,234.46ZM149,232.52h3.52V230a1.76,1.76,0,1,0-3.52,0Z"/><path class="cls-2" d="M121,243.32a1,1,0,0,1-1-1V240a1,1,0,1,1,1.93,0v2.37A1,1,0,0,1,121,243.32Z"/><path class="cls-2" d="M126.45,244a1,1,0,0,1-1-1V240a1,1,0,0,1,1.94,0v3.07A1,1,0,0,1,126.45,244Z"/><path class="cls-2" d="M149.51,244a1,1,0,0,1-1-1V240a1,1,0,0,1,1.94,0v3.07A1,1,0,0,1,149.51,244Z"/><path class="cls-2" d="M155,243.32a1,1,0,0,1-1-1V240a1,1,0,0,1,1.94,0v2.37A1,1,0,0,1,155,243.32Z"/><path class="cls-2" d="M146.71,260.89H129.26a1,1,0,0,1-1-1v-10a9.7,9.7,0,0,1,19.39,0v10A1,1,0,0,1,146.71,260.89ZM145.38,259h.36v-9.07a7.76,7.76,0,1,0-15.51,0V259h.36v-8.3a7.4,7.4,0,0,1,14.79,0Zm-12.85,0h10.91v-8.3a5.46,5.46,0,0,0-10.91,0Z"/><path class="cls-2" d="M124.82,256.91h-1.91a2.43,2.43,0,0,1-2.44-2.43v-4.86a1,1,0,0,1,1-1h4.84a1,1,0,0,1,1,1v4.86A2.43,2.43,0,0,1,124.82,256.91Zm-2.41-6.32v3.89a.49.49,0,0,0,.5.49h1.91a.5.5,0,0,0,.5-.49v-3.89Z"/><path class="cls-2" d="M127.69,250.59H120a1,1,0,0,1,0-1.94h7.65a1,1,0,0,1,0,1.94Z"/><path class="cls-2" d="M125.42,250.59H122.3a1,1,0,0,1-1-1v-1.56a2.53,2.53,0,0,1,5.06,0v1.56A1,1,0,0,1,125.42,250.59Zm-2.15-1.94h1.18v-.59a.58.58,0,0,0-.59-.59.59.59,0,0,0-.59.59Z"/><path class="cls-2" d="M153.06,256.91h-1.91a2.44,2.44,0,0,1-2.44-2.43v-4.86a1,1,0,0,1,1-1h4.85a1,1,0,0,1,1,1v4.86A2.43,2.43,0,0,1,153.06,256.91Zm-2.41-6.32v3.89a.5.5,0,0,0,.5.49h1.91a.49.49,0,0,0,.5-.49v-3.89Z"/><path class="cls-2" d="M155.93,250.59h-7.65a1,1,0,0,1,0-1.94h7.65a1,1,0,0,1,0,1.94Z"/><path class="cls-2" d="M153.66,250.59h-3.11a1,1,0,0,1-1-1v-1.56a2.53,2.53,0,1,1,5,0v1.56A1,1,0,0,1,153.66,250.59Zm-2.14-1.94h1.17v-.59a.59.59,0,1,0-1.17,0Z"/><path class="cls-2" d="M129.88,285.2a1,1,0,0,1-1-1V269.79a3.5,3.5,0,0,0-7,0v14.44a1,1,0,0,1-1.94,0V269.79a5.44,5.44,0,0,1,10.88,0v14.44A1,1,0,0,1,129.88,285.2Z"/><path class="cls-2" d="M155,285.2a1,1,0,0,1-1-1V269.79a3.5,3.5,0,0,0-7,0v14.44a1,1,0,0,1-1.94,0V269.79a5.44,5.44,0,0,1,10.87,0v14.44A1,1,0,0,1,155,285.2Z"/><path class="cls-2" d="M142.45,285.2a1,1,0,0,1-1-1V269.79a3.5,3.5,0,0,0-7,0v14.44a1,1,0,0,1-1.94,0V269.79a5.44,5.44,0,0,1,10.87,0v14.44A1,1,0,0,1,142.45,285.2Z"/><path class="cls-2" d="M231.3,195.93a1,1,0,0,1-1-1v-11.2a11,11,0,0,0-22,0v10.93a1,1,0,1,1-1.94,0V183.76a13,13,0,0,1,25.9,0V195A1,1,0,0,1,231.3,195.93Z"/><path class="cls-2" d="M240.16,195.93H231.3a1,1,0,0,1-1-1,11,11,0,1,0-22,0,1,1,0,0,1-1,1h-8.86a1,1,0,0,1,0-1.94h7.93a12.95,12.95,0,0,1,25.82,0h7v-8.22a1,1,0,0,1,1.94,0V195A1,1,0,0,1,240.16,195.93Z"/><path class="cls-2" d="M219.32,172.75a1,1,0,0,1-1-1V166.9a1,1,0,0,1,1.94,0v4.88A1,1,0,0,1,219.32,172.75Z"/><path class="cls-2" d="M207.34,184.73h-8.86a1,1,0,0,1,0-1.94h8.86a1,1,0,0,1,0,1.94Z"/><path class="cls-2" d="M207.34,186.74h-8.86a1,1,0,0,1,0-1.94h8.86a1,1,0,0,1,0,1.94Z"/><path class="cls-2" d="M206.61,184.73a1,1,0,0,1-1-1,2.74,2.74,0,1,0-5.47,0,1,1,0,1,1-1.93,0,4.67,4.67,0,1,1,9.34,0A1,1,0,0,1,206.61,184.73Z"/><path class="cls-2" d="M202.91,181a1,1,0,0,1-1-1v-3.18a1,1,0,1,1,1.94,0v3.18A1,1,0,0,1,202.91,181Z"/><path class="cls-2" d="M231.3,186.74a1,1,0,1,1,0-1.94h8.86l.2,0-.21,0H231.3a1,1,0,0,1,0-1.94h8.86a2,2,0,1,1,0,3.94Z"/><path class="cls-2" d="M239.44,184.73a1,1,0,0,1-1-1,2.74,2.74,0,1,0-5.47,0,1,1,0,1,1-1.94,0,4.67,4.67,0,1,1,9.34,0A1,1,0,0,1,239.44,184.73Z"/><path class="cls-2" d="M235.73,181a1,1,0,0,1-1-1v-3.18a1,1,0,1,1,1.94,0v3.18A1,1,0,0,1,235.73,181Z"/><path class="cls-2" d="M241.43,198.54H228.37a1,1,0,0,1-1-1,8.09,8.09,0,1,0-16.16,0,1,1,0,0,1-1,1H198.48a1,1,0,0,1,0-1.94h10.86a10,10,0,0,1,20,0h11.16v-.67h-.3a1,1,0,0,1,0-1.94h1.27a1,1,0,0,1,1,1v2.61A1,1,0,0,1,241.43,198.54Z"/><path class="cls-2" d="M229.15,209.86a1,1,0,0,1-1-1v-1.57a.92.92,0,0,0-.91-.92h-15.9a.92.92,0,0,0-.91.92v1.57a1,1,0,1,1-1.94,0v-1.57a2.86,2.86,0,0,1,2.85-2.86h15.9a2.86,2.86,0,0,1,2.85,2.86v1.57A1,1,0,0,1,229.15,209.86Z"/><path class="cls-2" d="M224.79,206.4a1,1,0,0,1-1-1,4.5,4.5,0,0,0-9,0,1,1,0,1,1-1.94,0,6.44,6.44,0,0,1,12.88,0A1,1,0,0,1,224.79,206.4Z"/><path class="cls-2" d="M235.76,222.78H202.88a1,1,0,0,1,0-1.94h32.88a1,1,0,0,1,0,1.94Z"/><path class="cls-2" d="M229.15,222.78a1,1,0,0,1-1-1v-7.64a1,1,0,0,1,1.94,0v7.64A1,1,0,0,1,229.15,222.78Z"/><path class="cls-2" d="M222.6,222.78a1,1,0,0,1-1-1v-7.64a1,1,0,0,1,1.94,0v7.64A1,1,0,0,1,222.6,222.78Z"/><path class="cls-2" d="M216,222.78a1,1,0,0,1-1-1v-7.64a1,1,0,0,1,1.94,0v7.64A1,1,0,0,1,216,222.78Z"/><path class="cls-2" d="M209.49,222.78a1,1,0,0,1-1-1v-7.64a1,1,0,0,1,1.94,0v7.64A1,1,0,0,1,209.49,222.78Z"/><path class="cls-2" d="M232,218.31h-25.3a1,1,0,0,1,0-1.94H232a1,1,0,0,1,0,1.94Z"/><path class="cls-2" d="M240.16,285.2a1,1,0,0,1-1-1V197.57a1,1,0,1,1,1.94,0v86.66A1,1,0,0,1,240.16,285.2Z"/><path class="cls-2" d="M236.32,241h-5.47c-1.5,0-2.29-1.7-2.29-3.38v-1H210.08v1c0,1.68-.79,3.38-2.29,3.38h-5.47c-2.6,0-2.6-3.19-2.6-4.24,0-3.05.74-4.19,2.71-4.19h33.79c2,0,2.7,1.14,2.7,4.19C238.92,237.76,238.92,241,236.32,241ZM230.91,239Zm0,0h5.43c.57,0,.66-1.44.66-2.3,0-1.93-.32-2.21-.33-2.21a1.46,1.46,0,0,0-.43,0H202.43a1.61,1.61,0,0,0-.45,0s-.32.28-.32,2.21c0,.86.09,2.3.66,2.3h5.43a2.4,2.4,0,0,0,.39-1.44v-2a1,1,0,0,1,1-1h20.42a1,1,0,0,1,1,1v2A2.4,2.4,0,0,0,230.89,239Z"/><path class="cls-2" d="M234.82,234.46h-5.46a1,1,0,0,1-1-1V230a3.7,3.7,0,1,1,7.4,0v3.53A1,1,0,0,1,234.82,234.46Zm-4.49-1.94h3.53V230a1.77,1.77,0,1,0-3.53,0Z"/><path class="cls-2" d="M226.31,234.46h-5.46a1,1,0,0,1-1-1V230a3.7,3.7,0,1,1,7.4,0v3.53A1,1,0,0,1,226.31,234.46Zm-4.49-1.94h3.52V230a1.76,1.76,0,1,0-3.52,0Z"/><path class="cls-2" d="M217.79,234.46h-5.46a1,1,0,0,1-1-1V230a3.7,3.7,0,1,1,7.4,0v3.53A1,1,0,0,1,217.79,234.46Zm-4.49-1.94h3.52V230a1.76,1.76,0,1,0-3.52,0Z"/><path class="cls-2" d="M209.28,234.46h-5.46a1,1,0,0,1-1-1V230a3.7,3.7,0,1,1,7.4,0v3.53A1,1,0,0,1,209.28,234.46Zm-4.49-1.94h3.52V230a1.76,1.76,0,1,0-3.52,0Z"/><path class="cls-2" d="M236.32,243.32a1,1,0,0,1-1-1V240a1,1,0,0,1,1.94,0v2.37A1,1,0,0,1,236.32,243.32Z"/><path class="cls-2" d="M230.85,244a1,1,0,0,1-1-1V240a1,1,0,0,1,1.94,0v3.07A1,1,0,0,1,230.85,244Z"/><path class="cls-2" d="M207.79,244a1,1,0,0,1-1-1V240a1,1,0,0,1,1.94,0v3.07A1,1,0,0,1,207.79,244Z"/><path class="cls-2" d="M202.32,243.32a1,1,0,0,1-1-1V240a1,1,0,0,1,1.94,0v2.37A1,1,0,0,1,202.32,243.32Z"/><path class="cls-2" d="M228,260.89H210.6a1,1,0,0,1-1-1v-10a9.69,9.69,0,0,1,19.38,0v10A1,1,0,0,1,228,260.89ZM226.71,259h.37v-9.07a7.76,7.76,0,0,0-15.52,0V259h.37v-8.3a7.39,7.39,0,0,1,14.78,0Zm-12.84,0h10.9v-8.3a5.45,5.45,0,0,0-10.9,0Z"/><path class="cls-2" d="M234.4,256.91h-1.91a2.43,2.43,0,0,1-2.44-2.43v-4.86a1,1,0,0,1,1-1h4.85a1,1,0,0,1,1,1v4.86A2.44,2.44,0,0,1,234.4,256.91ZM232,250.59v3.89a.49.49,0,0,0,.5.49h1.91a.5.5,0,0,0,.5-.49v-3.89Z"/><path class="cls-2" d="M237.27,250.59h-7.65a1,1,0,0,1,0-1.94h7.65a1,1,0,0,1,0,1.94Z"/><path class="cls-2" d="M235,250.59h-3.11a1,1,0,0,1-1-1v-1.56a2.53,2.53,0,1,1,5.05,0v1.56A1,1,0,0,1,235,250.59Zm-2.15-1.94H234v-.59a.58.58,0,0,0-.59-.59.59.59,0,0,0-.59.59Z"/><path class="cls-2" d="M206.15,256.91h-1.91a2.44,2.44,0,0,1-2.44-2.43v-4.86a1,1,0,0,1,1-1h4.85a1,1,0,0,1,1,1v4.86A2.43,2.43,0,0,1,206.15,256.91Zm-2.41-6.32v3.89a.5.5,0,0,0,.5.49h1.91a.49.49,0,0,0,.5-.49v-3.89Z"/><path class="cls-2" d="M209,250.59h-7.65a1,1,0,0,1,0-1.94H209a1,1,0,0,1,0,1.94Z"/><path class="cls-2" d="M206.76,250.59h-3.12a1,1,0,0,1-1-1v-1.56a2.53,2.53,0,0,1,5.06,0v1.56A1,1,0,0,1,206.76,250.59Zm-2.15-1.94h1.18v-.59a.59.59,0,0,0-.59-.59.58.58,0,0,0-.59.59Z"/><path class="cls-2" d="M236.36,285.2a1,1,0,0,1-1-1V269.79a3.5,3.5,0,0,0-7,0v14.44a1,1,0,0,1-1.94,0V269.79a5.44,5.44,0,0,1,10.87,0v14.44A1,1,0,0,1,236.36,285.2Z"/><path class="cls-2" d="M211.21,285.2a1,1,0,0,1-1-1V269.79a3.5,3.5,0,0,0-7,0v14.44a1,1,0,0,1-1.94,0V269.79a5.44,5.44,0,0,1,10.87,0v14.44A1,1,0,0,1,211.21,285.2Z"/><path class="cls-2" d="M223.79,285.2a1,1,0,0,1-1-1V269.79a3.5,3.5,0,0,0-7,0v14.44a1,1,0,0,1-1.94,0V269.79a5.44,5.44,0,0,1,10.88,0v14.44A1,1,0,0,1,223.79,285.2Z"/><path class="cls-2" d="M117.14,195.24H72.39a1,1,0,1,1,0-1.94h44.75a1,1,0,1,1,0,1.94Z"/><path class="cls-2" d="M117.14,199.05H72.39a1,1,0,0,1,0-1.94h44.75a1,1,0,1,1,0,1.94Z"/><path class="cls-2" d="M117.14,224.39H72.39a1,1,0,1,1,0-1.94h44.75a1,1,0,1,1,0,1.94Z"/><path class="cls-2" d="M117.14,228.19H72.39a1,1,0,1,1,0-1.93h44.75a1,1,0,1,1,0,1.93Z"/><path class="cls-2" d="M117.14,257.09H72.39a1,1,0,1,1,0-1.94h44.75a1,1,0,1,1,0,1.94Z"/><path class="cls-2" d="M117.14,260.89H72.39a1,1,0,1,1,0-1.93h44.75a1,1,0,1,1,0,1.93Z"/><path class="cls-2" d="M111.32,252.48h-6.79a1,1,0,0,1-1-1V234.84c0-2.21,3.34-3.65,4-3.91a1,1,0,0,1,.72,0c.66.26,4,1.7,4,3.91v16.67A1,1,0,0,1,111.32,252.48Zm-5.82-1.94h4.85v-15.7c0-.52-1.21-1.41-2.42-2-1.21.55-2.43,1.44-2.43,2Z"/><path class="cls-2" d="M111.32,239.12h-6.79a1,1,0,0,1,0-1.94h6.79a1,1,0,1,1,0,1.94Z"/><path class="cls-2" d="M111.32,241.16h-6.79a1,1,0,0,1,0-1.94h6.79a1,1,0,1,1,0,1.94Z"/><path class="cls-2" d="M98.16,252.48H91.37a1,1,0,0,1-1-1V234.84c0-2.21,3.34-3.65,4-3.91a1,1,0,0,1,.71,0c.67.26,4,1.7,4,3.91v16.67A1,1,0,0,1,98.16,252.48Zm-5.82-1.94h4.85v-15.7c0-.52-1.22-1.41-2.43-2-1.2.55-2.42,1.44-2.42,2Z"/><path class="cls-2" d="M98.16,195.24H91.37a1,1,0,0,1-1-1v-5.11c0-2.21,3.34-3.65,4-3.91a.88.88,0,0,1,.71,0c.67.26,4,1.7,4,3.91v5.11A1,1,0,0,1,98.16,195.24Zm-5.82-1.94h4.85v-4.14c0-.52-1.21-1.41-2.42-2-1.21.55-2.43,1.44-2.43,2Z"/><path class="cls-2" d="M100.05,145.1H89.49a1,1,0,0,1-1-1v-2.58c0-4,5.55-7.07,5.79-7.19a.94.94,0,0,1,.92,0c.23.12,5.79,3.15,5.79,7.19v2.58A1,1,0,0,1,100.05,145.1Zm-9.59-1.94h8.62v-1.61c0-2.15-2.79-4.29-4.31-5.22-1.53.93-4.31,3.07-4.31,5.22Z"/><path class="cls-2" d="M84,155.61H77.23a1,1,0,0,1-1-1V153c0-2.73,3.48-4.68,3.88-4.89a.92.92,0,0,1,.91,0c.4.21,3.88,2.16,3.88,4.89v1.65A1,1,0,0,1,84,155.61Zm-5.76-1.94H83V153c0-1.06-1.4-2.27-2.39-2.91-.92.59-2.4,1.79-2.4,2.91Z"/><path class="cls-2" d="M98.16,239.12H91.37a1,1,0,1,1,0-1.94h6.79a1,1,0,0,1,0,1.94Z"/><path class="cls-2" d="M98.16,241.16H91.37a1,1,0,0,1,0-1.94h6.79a1,1,0,0,1,0,1.94Z"/><path class="cls-2" d="M85,252.48H78.21a1,1,0,0,1-1-1V234.84c0-2.21,3.33-3.65,4-3.91a1,1,0,0,1,.72,0c.67.26,4,1.7,4,3.91v16.67A1,1,0,0,1,85,252.48Zm-5.83-1.94H84v-15.7c0-.52-1.22-1.41-2.43-2-1.21.55-2.43,1.44-2.43,2Z"/><path class="cls-2" d="M85,239.12H78.21a1,1,0,0,1,0-1.94H85a1,1,0,0,1,0,1.94Z"/><path class="cls-2" d="M85,241.16H78.21a1,1,0,0,1,0-1.94H85a1,1,0,0,1,0,1.94Z"/><path class="cls-2" d="M101.35,231.28a1,1,0,0,1-1-1v-3.09a1,1,0,0,1,1.93,0v3.09A1,1,0,0,1,101.35,231.28Z"/><path class="cls-2" d="M88.18,231.28a1,1,0,0,1-1-1v-3.09a1,1,0,0,1,1.94,0v3.09A1,1,0,0,1,88.18,231.28Z"/><path class="cls-2" d="M112.5,280.56H102.25a1,1,0,0,1-1-1V269.13a6.09,6.09,0,1,1,12.18,0v10.46A1,1,0,0,1,112.5,280.56Zm-9.28-1.94h8.31v-9.49a4.16,4.16,0,0,0-8.31,0Z"/><path class="cls-2" d="M112.5,277.1H102.25a1,1,0,0,1,0-1.94H112.5a1,1,0,0,1,0,1.94Z"/><path class="cls-2" d="M99.84,280.56H89.59a1,1,0,0,1-1-1V269.13a6.1,6.1,0,0,1,12.19,0v10.46A1,1,0,0,1,99.84,280.56Zm-9.28-1.94h8.31v-9.49a4.16,4.16,0,0,0-8.31,0Z"/><path class="cls-2" d="M99.84,277.1H89.59a1,1,0,0,1,0-1.94H99.84a1,1,0,0,1,0,1.94Z"/><path class="cls-2" d="M87.19,280.56H76.94a1,1,0,0,1-1-1V269.13a6.1,6.1,0,0,1,12.19,0v10.46A1,1,0,0,1,87.19,280.56Zm-9.28-1.94h8.31v-9.49a4.16,4.16,0,0,0-8.31,0Z"/><path class="cls-2" d="M87.19,277.1H76.94a1,1,0,0,1,0-1.94H87.19a1,1,0,0,1,0,1.94Z"/><path class="cls-2" d="M112.55,220.3H102.3a1,1,0,0,1-1-1V208.87a6.09,6.09,0,1,1,12.18,0v10.46A1,1,0,0,1,112.55,220.3Zm-9.28-1.94h8.31v-9.49a4.16,4.16,0,0,0-8.31,0Z"/><path class="cls-2" d="M112.55,216.83H102.3a1,1,0,1,1,0-1.93h10.25a1,1,0,0,1,0,1.93Z"/><path class="cls-2" d="M99.89,220.3H89.64a1,1,0,0,1-1-1V208.87a6.1,6.1,0,0,1,12.19,0v10.46A1,1,0,0,1,99.89,220.3Zm-9.28-1.94h8.31v-9.49a4.16,4.16,0,0,0-8.31,0Z"/><path class="cls-2" d="M99.89,216.83H89.64a1,1,0,1,1,0-1.93H99.89a1,1,0,1,1,0,1.93Z"/><path class="cls-2" d="M87.24,220.3H77a1,1,0,0,1-1-1V208.87a6.1,6.1,0,0,1,12.19,0v10.46A1,1,0,0,1,87.24,220.3ZM78,218.36h8.31v-9.49a4.16,4.16,0,0,0-8.31,0Z"/><path class="cls-2" d="M88.67,183.94H83a1,1,0,0,1-1-1v-5.81a3.81,3.81,0,0,1,7.62,0V183A1,1,0,0,1,88.67,183.94ZM84,182h3.75v-4.84a1.88,1.88,0,0,0-3.75,0Z"/><path class="cls-2" d="M97.61,183.94H91.92a1,1,0,0,1-1-1v-5.81a3.82,3.82,0,0,1,7.63,0V183A1,1,0,0,1,97.61,183.94ZM92.89,182h3.75v-4.84a1.88,1.88,0,0,0-3.75,0Z"/><path class="cls-2" d="M106.54,183.94h-5.69a1,1,0,0,1-1-1v-5.81a3.82,3.82,0,0,1,7.63,0V183A1,1,0,0,1,106.54,183.94ZM101.82,182h3.75v-4.84a1.88,1.88,0,0,0-3.75,0Z"/><path class="cls-2" d="M87.24,216.83H77a1,1,0,1,1,0-1.93H87.24a1,1,0,1,1,0,1.93Z"/><path class="cls-2" d="M110.79,195.24H78.74a1,1,0,0,1-1-1V169.34a1,1,0,0,1,1-1h32.05a1,1,0,0,1,1,1v24.93A1,1,0,0,1,110.79,195.24ZM79.71,193.3h30.11v-23H79.71Z"/><path class="cls-2" d="M110.79,170.31H78.74a1,1,0,0,1-1-1v-7a1,1,0,0,1,1-1h32.05a1,1,0,0,1,1,1v7A1,1,0,0,1,110.79,170.31Zm-31.08-1.94h30.11v-5H79.71Z"/><path class="cls-2" d="M112,184H77.51a1,1,0,1,1,0-1.93H112a1,1,0,1,1,0,1.93Z"/><path class="cls-2" d="M112,170.31H77.51a1,1,0,1,1,0-1.94H112a1,1,0,1,1,0,1.94Z"/><path class="cls-2" d="M112,163.33H77.51a1,1,0,1,1,0-1.94H112a1,1,0,1,1,0,1.94Z"/><path class="cls-2" d="M103,163.33H86.55a1,1,0,0,1-1-1,4.91,4.91,0,0,1,4.91-4.91H99a4.92,4.92,0,0,1,4.92,4.91A1,1,0,0,1,103,163.33Zm-15.28-1.94h14.15a3,3,0,0,0-2.82-2H90.49A3,3,0,0,0,87.68,161.39Z"/><path class="cls-2" d="M99.1,159.38H90.43a1,1,0,0,1-1-1V146.19a1,1,0,0,1,1-1H99.1a1,1,0,0,1,1,1v12.22A1,1,0,0,1,99.1,159.38Zm-7.7-1.93h6.73V147.16H91.4Z"/><path class="cls-2" d="M100.33,147.16H89.2a1.92,1.92,0,0,1-1.92-1.92v-.16a1.92,1.92,0,0,1,1.92-1.92h11.13a1.92,1.92,0,0,1,1.92,1.92v.16A1.92,1.92,0,0,1,100.33,147.16Zm0-1.94v0Zm0-.14-11.12,0,0,.14,11.1,0Z"/><path class="cls-2" d="M94.77,136.18a1,1,0,0,1-1-1V132a1,1,0,0,1,1.94,0v3.26A1,1,0,0,1,94.77,136.18Z"/><path class="cls-2" d="M82.45,163.33H78.74a1,1,0,0,1-1-1v-7.72a1,1,0,0,1,1-1h3.71a1,1,0,0,1,1,1v7.72A1,1,0,0,1,82.45,163.33Zm-2.74-1.94h1.77v-5.78H79.71Z"/><path class="cls-2" d="M80.6,149.92a1,1,0,0,1-1-1v-2.06a1,1,0,1,1,1.93,0V149A1,1,0,0,1,80.6,149.92Z"/><path class="cls-2" d="M112.3,155.61h-6.74a1,1,0,0,1-1-1V153c0-2.73,3.49-4.68,3.88-4.89a.94.94,0,0,1,.92,0c.4.21,3.88,2.16,3.88,4.89v1.65A1,1,0,0,1,112.3,155.61Zm-5.77-1.94h4.8V153c0-1.12-1.48-2.31-2.4-2.91-.92.6-2.4,1.79-2.4,2.91Z"/><path class="cls-2" d="M110.79,163.33h-3.71a1,1,0,0,1-1-1v-7.72a1,1,0,0,1,1-1h3.71a1,1,0,0,1,1,1v7.72A1,1,0,0,1,110.79,163.33Zm-2.74-1.94h1.77v-5.78h-1.77Z"/><path class="cls-2" d="M108.93,149.92a1,1,0,0,1-1-1v-2.06a1,1,0,1,1,1.94,0V149A1,1,0,0,1,108.93,149.92Z"/><path class="cls-2" d="M81.76,166.59a1,1,0,0,1-1-1v-3.26a1,1,0,1,1,1.94,0v3.26A1,1,0,0,1,81.76,166.59Z"/><path class="cls-2" d="M85,166.59a1,1,0,0,1-1-1v-3.26a1,1,0,1,1,1.94,0v3.26A1,1,0,0,1,85,166.59Z"/><path class="cls-2" d="M88.26,166.59a1,1,0,0,1-1-1v-3.26a1,1,0,1,1,1.94,0v3.26A1,1,0,0,1,88.26,166.59Z"/><path class="cls-2" d="M91.51,166.59a1,1,0,0,1-1-1v-3.26a1,1,0,1,1,1.94,0v3.26A1,1,0,0,1,91.51,166.59Z"/><path class="cls-2" d="M94.76,166.59a1,1,0,0,1-1-1v-3.26a1,1,0,0,1,1.94,0v3.26A1,1,0,0,1,94.76,166.59Z"/><path class="cls-2" d="M98,166.59a1,1,0,0,1-1-1v-3.26a1,1,0,0,1,1.94,0v3.26A1,1,0,0,1,98,166.59Z"/><path class="cls-2" d="M101.26,166.59a1,1,0,0,1-1-1v-3.26a1,1,0,0,1,1.94,0v3.26A1,1,0,0,1,101.26,166.59Z"/><path class="cls-2" d="M104.51,166.59a1,1,0,0,1-1-1v-3.26a1,1,0,0,1,1.94,0v3.26A1,1,0,0,1,104.51,166.59Z"/><path class="cls-2" d="M107.76,166.59a1,1,0,0,1-1-1v-3.26a1,1,0,1,1,1.93,0v3.26A1,1,0,0,1,107.76,166.59Z"/><path class="cls-2" d="M72.39,285.2a1,1,0,0,1-1-1V260.86a2.41,2.41,0,0,1-2-2.38v-.92a2.41,2.41,0,0,1,2-2.38v-27a2.41,2.41,0,0,1-2-2.38v-.92a2.41,2.41,0,0,1,2-2.38V199a2.42,2.42,0,0,1-2-2.39v-.91a2.41,2.41,0,0,1,2.41-2.42h.58a1,1,0,1,1,0,1.94h-.58a.47.47,0,0,0-.47.48v.91a.47.47,0,0,0,.47.48h.58a1,1,0,0,1,1,1v25.34a1,1,0,0,1-1,1h-.58a.47.47,0,0,0-.47.47v.92a.48.48,0,0,0,.47.48h.58a1,1,0,0,1,1,1v28.9a1,1,0,0,1-1,1h-.58a.47.47,0,0,0-.47.47v.92a.48.48,0,0,0,.47.48h.58a1,1,0,0,1,1,1v24.31A1,1,0,0,1,72.39,285.2Z"/><path class="cls-2" d="M284.92,208.89H240.16a1,1,0,0,1,0-1.94h44.76a1,1,0,1,1,0,1.94Z"/><path class="cls-2" d="M284.92,212.7H240.16a1,1,0,0,1,0-1.94h44.76a1,1,0,1,1,0,1.94Z"/><path class="cls-2" d="M284.92,224.39H240.16a1,1,0,0,1,0-1.94h44.76a1,1,0,1,1,0,1.94Z"/><path class="cls-2" d="M284.92,228.19H240.16a1,1,0,1,1,0-1.93h44.76a1,1,0,1,1,0,1.93Z"/><path class="cls-2" d="M284.92,257.09H240.16a1,1,0,1,1,0-1.94h44.76a1,1,0,0,1,0,1.94Z"/><path class="cls-2" d="M284.92,260.89H240.16a1,1,0,1,1,0-1.93h44.76a1,1,0,1,1,0,1.93Z"/><path class="cls-2" d="M251.59,224.39h-6a1,1,0,0,1-1-1v-4.26c0-2.18,3-3.63,3.58-3.9a1,1,0,0,1,.79,0c.6.27,3.59,1.72,3.59,3.9v4.26A1,1,0,0,1,251.59,224.39Zm-5.05-1.94h4.08v-3.29c0-.58-1.1-1.43-2-1.93-.94.5-2,1.35-2,1.93Z"/><path class="cls-2" d="M252.77,252.48H246a1,1,0,0,1-1-1V234.84c0-2.21,3.34-3.65,4-3.91a1,1,0,0,1,.71,0c.67.26,4,1.7,4,3.91v16.67A1,1,0,0,1,252.77,252.48ZM247,250.54h4.85v-15.7c0-.51-1.23-1.41-2.42-2-1.21.55-2.43,1.44-2.43,2Z"/><path class="cls-2" d="M260.93,224.39h-6a1,1,0,0,1-1-1v-4.26c0-2.18,3-3.63,3.58-3.9a1,1,0,0,1,.79,0c.6.27,3.59,1.72,3.59,3.9v4.26A1,1,0,0,1,260.93,224.39Zm-5.06-1.94H260v-3.29c0-.58-1.1-1.43-2-1.93-.94.5-2.05,1.35-2.05,1.93Z"/><path class="cls-2" d="M270.27,224.39h-6a1,1,0,0,1-1-1v-4.26c0-2.18,3-3.63,3.59-3.9a1,1,0,0,1,.79,0c.6.27,3.59,1.72,3.59,3.9v4.26A1,1,0,0,1,270.27,224.39Zm-5.06-1.94h4.09v-3.29c0-.58-1.1-1.43-2-1.93-.95.5-2.05,1.35-2.05,1.93Z"/><path class="cls-2" d="M279.61,224.39h-6a1,1,0,0,1-1-1v-4.26c0-2.18,3-3.63,3.59-3.9a1,1,0,0,1,.79,0c.6.27,3.59,1.72,3.59,3.9v4.26A1,1,0,0,1,279.61,224.39Zm-5.06-1.94h4.09v-3.29c0-.58-1.1-1.43-2-1.93-1,.5-2.05,1.35-2.05,1.93Z"/><path class="cls-2" d="M252.77,239.12H246a1,1,0,0,1,0-1.94h6.79a1,1,0,0,1,0,1.94Z"/><path class="cls-2" d="M252.77,241.16H246a1,1,0,0,1,0-1.94h6.79a1,1,0,0,1,0,1.94Z"/><path class="cls-2" d="M265.93,252.48h-6.79a1,1,0,0,1-1-1V234.84c0-2.21,3.33-3.65,4-3.91a1,1,0,0,1,.72,0c.67.26,4,1.7,4,3.91v16.67A1,1,0,0,1,265.93,252.48Zm-5.82-1.94H265v-15.7c0-.51-1.24-1.41-2.43-2-1.21.55-2.43,1.44-2.43,2Z"/><path class="cls-2" d="M265.93,239.12h-6.79a1,1,0,0,1,0-1.94h6.79a1,1,0,1,1,0,1.94Z"/><path class="cls-2" d="M265.93,241.16h-6.79a1,1,0,0,1,0-1.94h6.79a1,1,0,1,1,0,1.94Z"/><path class="cls-2" d="M279.1,252.48h-6.79a1,1,0,0,1-1-1V234.84c0-2.21,3.34-3.65,4-3.91a1,1,0,0,1,.71,0c.67.26,4,1.7,4,3.91v16.67A1,1,0,0,1,279.1,252.48Zm-5.82-1.94h4.85v-15.7c0-.51-1.24-1.41-2.43-2-1.2.55-2.42,1.44-2.42,2Z"/><path class="cls-2" d="M279.1,239.12h-6.79a1,1,0,1,1,0-1.94h6.79a1,1,0,0,1,0,1.94Z"/><path class="cls-2" d="M279.1,241.16h-6.79a1,1,0,1,1,0-1.94h6.79a1,1,0,0,1,0,1.94Z"/><path class="cls-2" d="M256,231.28a1,1,0,0,1-1-1v-3.09a1,1,0,0,1,1.94,0v3.09A1,1,0,0,1,256,231.28Z"/><path class="cls-2" d="M269.12,231.28a1,1,0,0,1-1-1v-3.09a1,1,0,0,1,1.94,0v3.09A1,1,0,0,1,269.12,231.28Z"/><path class="cls-2" d="M255.06,280.56H244.81a1,1,0,0,1-1-1V269.13a6.1,6.1,0,0,1,12.19,0v10.46A1,1,0,0,1,255.06,280.56Zm-9.28-1.94h8.31v-9.49a4.16,4.16,0,0,0-8.31,0Z"/><path class="cls-2" d="M255.06,277.1H244.81a1,1,0,1,1,0-1.94h10.25a1,1,0,0,1,0,1.94Z"/><path class="cls-2" d="M267.71,280.56H257.46a1,1,0,0,1-1-1V269.13a6.1,6.1,0,0,1,12.19,0v10.46A1,1,0,0,1,267.71,280.56Zm-9.28-1.94h8.31v-9.49a4.16,4.16,0,0,0-8.31,0Z"/><path class="cls-2" d="M267.71,277.1H257.46a1,1,0,0,1,0-1.94h10.25a1,1,0,0,1,0,1.94Z"/><path class="cls-2" d="M280.36,280.56H270.12a1,1,0,0,1-1-1V269.13a6.09,6.09,0,0,1,12.18,0v10.46A1,1,0,0,1,280.36,280.56Zm-9.27-1.94h8.31v-9.49a4.16,4.16,0,0,0-8.31,0Z"/><path class="cls-2" d="M280.36,277.1H270.12a1,1,0,0,1,0-1.94h10.24a1,1,0,0,1,0,1.94Z"/><path class="cls-2" d="M252.15,208.89a1,1,0,0,1-1-1V205.5a1,1,0,1,1,1.94,0v2.42A1,1,0,0,1,252.15,208.89Z"/><path class="cls-2" d="M266.17,208.89a1,1,0,0,1-1-1v-4a1,1,0,0,1,1.94,0v4A1,1,0,0,1,266.17,208.89Z"/><path class="cls-2" d="M284.92,285.2a1,1,0,0,1-1-1V259.92a1,1,0,0,1,1-1h.57a.49.49,0,0,0,.48-.48v-.92a.48.48,0,0,0-.48-.47h-.57a1,1,0,0,1-1-1v-28.9a1,1,0,0,1,1-1h.57a.49.49,0,0,0,.48-.48v-.92a.48.48,0,0,0-.48-.47h-.57a1,1,0,0,1-1-1V211.73a1,1,0,0,1,1-1h.57a.48.48,0,0,0,.48-.47v-.92a.49.49,0,0,0-.48-.48h-.57a1,1,0,1,1,0-1.94h.57a2.43,2.43,0,0,1,2.42,2.42v.92a2.43,2.43,0,0,1-2,2.38v9.81a2.42,2.42,0,0,1,2,2.38v.92a2.42,2.42,0,0,1-2,2.38v27a2.42,2.42,0,0,1,2,2.38v.92a2.42,2.42,0,0,1-2,2.38v23.37A1,1,0,0,1,284.92,285.2Z"/><path class="cls-2" d="M287.31,289.35H70a2.25,2.25,0,0,1-2.25-2.25v-1.59A2.25,2.25,0,0,1,70,283.26H287.31a2.25,2.25,0,0,1,2.25,2.25v1.59A2.25,2.25,0,0,1,287.31,289.35ZM70,285.2a.31.31,0,0,0-.31.31v1.59a.31.31,0,0,0,.31.31H287.31a.31.31,0,0,0,.31-.31v-1.59a.31.31,0,0,0-.31-.31Z"/><path class="cls-3" d="M178.19,1.08a177.11,177.11,0,1,0,177.1,177.11A177.12,177.12,0,0,0,178.19,1.08Zm0,288.27A111.16,111.16,0,1,1,289.35,178.19,111.16,111.16,0,0,1,178.19,289.35Z"/><path class="cls-2" d="M178.18,356.37C79.93,356.37,0,276.44,0,178.18S79.93,0,178.18,0,356.37,79.93,356.37,178.18,276.44,356.37,178.18,356.37Zm0-354.2c-97.05,0-176,79-176,176s79,176,176,176,176-79,176-176S275.24,2.17,178.18,2.17Zm0,288.27A112.25,112.25,0,1,1,290.44,178.18,112.37,112.37,0,0,1,178.18,290.44Zm0-222.33A110.08,110.08,0,1,0,288.27,178.18,110.2,110.2,0,0,0,178.18,68.11Z"/><path class="cls-4" d="M34.26,187.9h0A14.45,14.45,0,0,0,19.8,173.44h0A14.45,14.45,0,0,0,34.26,159h0a14.45,14.45,0,0,0,14.46,14.46h0A14.45,14.45,0,0,0,34.26,187.9Z"/><path class="cls-4" d="M321.79,187.9h0a14.45,14.45,0,0,0-14.46-14.46h0A14.45,14.45,0,0,0,321.79,159h0a14.46,14.46,0,0,0,14.46,14.46h0A14.46,14.46,0,0,0,321.79,187.9Z"/><path class="cls-4" d="M54.4,74.74l1.33.88c-.89,1.62-.52,3,.66,4.61l19.07,25.9-2.31,3.49L41,103.55c-2-.4-3.38-.21-4.52,1.25l-1.33-.88,7.38-11.18,1.33.87c-1,1.68-.22,3.14,1.66,3.55l23.85,5.18L54.82,82.6c-1.21-1.7-2.4-1.88-3.45-.37L50,81.35Z"/><path class="cls-4" d="M104.75,72.66l1.09,1.17L96,83l-1.09-1.16c1.35-1.4,1.18-2.89-.59-3.75l-5.72-2.69-9.38,8.79L81.68,90c.82,1.89,2.08,2.14,3.56,1l1.09,1.16L80.08,98,79,96.81c1.24-1.36,1.22-2.84.4-4.67L69,67.6c-.79-1.92-2-2.81-3.58-1.56l-1.06-1.12,5.81-5.45L100,72.83C101.83,73.63,103.3,73.81,104.75,72.66Zm-18.9,1.48-13.6-6.5,5.83,13.78Z"/><path class="cls-4" d="M130.14,41.81c4.36,8.62,2,18.52-9.85,24.53l-12.48,6.32-.72-1.42c1.62-1,1.59-2.15.71-3.88L96.3,44.66c-.87-1.73-1.77-2.39-3.55-1.72l-.69-1.37,12.48-6.33C116.4,29.24,125.75,33.15,130.14,41.81Zm-7.06,3.58c-3.94-7.77-10.46-11.06-18.15-7.16l-3.06,1.55,13.16,26,3.07-1.56C125.78,60.32,127,53.16,123.08,45.39Z"/><path class="cls-4" d="M175.11,33.14c1.64,10.28-5.39,19-15.77,20.68S139.62,49.35,138,39.07s5.33-19,15.71-20.66S173.46,22.82,175.11,33.14Zm-7.77,1.24c-1.6-10-7.16-15.14-13.36-14.15s-9.83,7.62-8.23,17.6S152.9,53,159.05,52,168.92,44.32,167.34,34.38Z"/><path class="cls-4" d="M216.5,38c-1.31,9.58-8.89,16.38-22.06,14.56l-13.87-1.9.22-1.58c1.89.11,2.53-.86,2.8-2.79l3.47-25.21c.26-1.92-.1-3-1.95-3.44l.21-1.52,13.87,1.9C212.37,19.88,217.83,28.42,216.5,38ZM208.66,37c1.19-8.63-2.31-15-10.84-16.22l-3.41-.47-4,28.87,3.41.47C202.38,50.78,207.47,45.6,208.66,37Z"/><path class="cls-4" d="M246.36,67.64l-.64,1.46-12.33-5.34L234,62.3c1.82.68,3.12-.06,3.21-2l.19-6.32-11.79-5.11-4.35,4.52c-1.41,1.5-1.14,2.76.54,3.65l-.63,1.46-7.86-3.4.63-1.46c1.75.59,3.1,0,4.45-1.5l18.38-19.27c1.46-1.49,1.78-3,0-3.91l.62-1.41,7.31,3.16-.42,32.65C244.31,65.34,244.73,66.77,246.36,67.64ZM237.5,50.89l.55-15.07L227.72,46.65Z"/><path class="cls-4" d="M273.45,89.79l-1,1.23-7.24-5.94,2.27-16.43-.23-.19-3.31-2.72L258,73c-1.23,1.5-1.51,2.62-.14,3.94l-1,1.23-9.25-7.58,1-1.23c1.55,1.08,2.6.59,3.83-.91l16.14-19.68c1.24-1.5,1.48-2.59.11-3.9l1-1.23,10.71,8.78c6.39,5.24,8.29,12,4.25,16.88-2.65,3.24-6.53,4.12-10.72,2.87L272.51,85C272.3,87,272.49,88.68,273.45,89.79Zm-5.68-24.57c4.12,3.38,8.16,2.77,11-.7s2.62-7.51-1.5-10.89l-2-1.68-9.51,11.6Z"/><path class="cls-4" d="M295,120.51l-1.32.9-7.59-11.1,1.32-.9c1.17,1.55,2.67,1.61,3.79,0l3.53-5.25-7.25-10.61-6.09,1.51c-2,.53-2.44,1.73-1.49,3.38l-1.32.9-4.83-7.07,1.31-.9c1.17,1.43,2.63,1.64,4.56,1.1L305.46,86c2-.48,3.08-1.57,2.08-3.29l1.28-.88,4.5,6.58-17.76,27.41C294.49,117.48,294.08,118.9,295,120.51Zm1.43-18.9,8.5-12.45-14.52,3.66Z"/><path class="cls-4" d="M56.09,268.68c-5.69,2.9-11.49-.28-15.68-7.4l-8-13.6,1.38-.81c1.06,1.52,2.21,1.41,3.89.43l21.92-12.92c1.67-1,2.28-1.92,1.51-3.61l1.33-.78L69,241.06c4.19,7.12,4.63,13.45-.86,16.4a7.42,7.42,0,0,1-8.88-1.24C61.55,261.37,60.75,266.29,56.09,268.68Zm-4-6.82c3.82-2.25,4.49-5.82,1.79-10.41l-2.33-3.95-11.8,6.95,2.33,3.95C44.76,263,48.21,264.14,52.07,261.86Zm14-20.05-1.27-2.14L54.15,246l1.26,2.15c2.71,4.59,5.68,5,9,3.08S68.8,246.4,66.1,241.81Z"/><path class="cls-4" d="M101.65,280l-1.12,1.13c-1.41-1.19-2.47-.83-3.84.55L85.11,293.32c-5.94,6-13.58,6.59-19.62.59-5.58-5.55-7.41-13.4-.59-20.25l11.79-11.87c1.37-1.38,1.72-2.44.52-3.85l1.12-1.13,8.48,8.43-1.12,1.13c-1.45-1.23-2.51-.87-3.88.51L69.81,279c-5,5-5,10.3-1,14.2,4.24,4.21,9.84,2.61,13.95-1.53l11.93-12c1.37-1.38,1.72-2.44.52-3.84l1.12-1.13Z"/><path class="cls-4" d="M118.61,317.83l-4.7,6c-3.91.54-8.25-.49-12.51-3.19-9-5.68-13-15.48-7.63-24.92s15.91-11.6,25.18-6.35a24.55,24.55,0,0,1,9.29,9.16l-3.88,6.84-1.21-.68c1.77-6.16-.1-10.94-4.85-13.57-6.55-3.59-13.17.72-17.59,8.52-4.67,8.24-3.84,16,2.17,19.72,5,3.11,9.62,2.3,14.52-2.19Z"/><path class="cls-4" d="M158.26,338.07l-.38,1.54-13.15-3.25.38-1.55c1.72.32,2.59-.69,1.92-2.76l-4.89-14.65L136.53,321l-2,8c-.47,1.89-.24,3,1.52,3.61l-.39,1.55-11.55-2.87.38-1.54c1.83.3,2.56-.6,3-2.49l6.12-24.7c.47-1.88.22-3-1.53-3.56l.38-1.54,11.56,2.86-.39,1.55c-1.82-.3-2.55.55-3,2.43l-3.28,13.25,15.48-10.12c1.4-.89,1.81-1.71,1.64-2.26s-.4-.67-1.06-.88l.38-1.55,8.94,2.21-.38,1.55c-1.63-.25-2.61-.23-6,1.9l-7.79,4.94,6.6,20.78A6.14,6.14,0,0,0,158.26,338.07Z"/><path class="cls-4" d="M194.49,330.36l-.84,9.43-25.75.41,0-1.59c1.89-.18,2.32-1.23,2.29-3.17L169.75,310c0-1.94-.49-2.93-2.39-3.1l0-1.54,24.79-.4,1.1,9.34-1.24,0c-.74-2.63-2.45-6.48-7.13-6.41l-7.92.13.21,12.9,5.28-.09c3.44,0,4.07-1.21,4.38-3.31l1.25,0,.15,9.36-1.25,0c-.38-2.09-1.05-3.22-4.48-3.17l-5.28.09.22,13.34,8.91-.14c4.63-.08,6.26-4,6.92-6.64Z"/><path class="cls-4" d="M227.63,306.69l-1.21.3c-1.31-2.39-3.83-5.72-8.38-4.59l-3.72.93,6.57,26.44c.47,1.88,1.21,2.78,3.08,2.47l.38,1.54-11.6,2.89-.38-1.55c1.8-.6,2-1.74,1.56-3.62l-6.57-26.44-3.72.92c-4.54,1.13-5.21,5.25-5.25,8l-1.21.3-1.34-9.32,28.61-7.11Z"/><path class="cls-4" d="M262.67,306.61l3.5,8.8-22.92,12-.74-1.41c1.56-1,1.51-2.15.61-3.87l-11.85-22.52c-.9-1.72-1.8-2.37-3.53-1.69l-.72-1.36,10.58-5.56.72,1.36c-1.58,1.06-1.56,2.17-.65,3.89l12.7,24.15,8-4.21c4.1-2.16,3.79-6.39,3.18-9.05Z"/><path class="cls-4" d="M262.94,280l15.61,20.1c1.19,1.53,2.22,2.05,3.81,1l1,1.26-9.44,7.33-1-1.26c1.36-1.25,1.12-2.38-.08-3.91l-15.6-20.1c-1.2-1.54-2.2-2-3.78-1.05l-.94-1.22,9.44-7.33.94,1.22C261.53,277.36,261.75,278.45,262.94,280Z"/><path class="cls-4" d="M301.73,273.74c3.07,4.83,1,10.11-2.72,14.18a21.33,21.33,0,0,1-10.7,6.68l-6-5.51.84-.92c5.44,2.54,10.44,2.53,13.86-.76,3-3,2.9-6.12.89-8.42-3-3.4-6-1.78-10.69-.27-5.53,1.76-12.52,3.87-16.8-2.82-2.72-4.17-.82-8.91,2.61-12.66,2.69-2.94,5.39-4.19,9.26-5.1l5.32,4.81-.84.91c-5.59-3-9.07-2.69-11.94.15s-2.44,5.46-.7,7.18c2.43,2.43,6.4,1.27,11.4-.29C292.38,268.76,297.59,267.12,301.73,273.74Z"/><path class="cls-4" d="M305.68,232.07l-.62,1.08c-2.64-.71-6.78-1.18-9.11,2.88l-1.9,3.33,23.65,13.53c1.68,1,2.84,1.05,3.91-.52l1.38.79-5.94,10.38-1.38-.79c.81-1.72.15-2.67-1.54-3.64l-23.64-13.52-1.91,3.32c-2.32,4.07.19,7.4,2.14,9.31l-.62,1.09-7.66-5.47,14.64-25.6Z"/></g></g></svg>